<svg xmlns="http://www.w3.org/2000/svg" viewBox="0 0 444.32 94.58"><defs><style>.cls-1{fill:#fff;}</style></defs><g id="Layer_2" data-name="Layer 2"><g id="Layer_1-2" data-name="Layer 1"><path class="cls-1" d="M34.58,46.79c-2.67-2.9-6-4-9.24-5l-4-1.22c-3.13-.92-4.05-1.83-4.43-2.29A3.38,3.38,0,0,1,16.18,36a3.77,3.77,0,0,1,1.3-2.75,6.35,6.35,0,0,1,4.35-1.53c1.76,0,4.74.31,8.71,3.44L35.81,24.8a35.77,35.77,0,0,0-15.73-4.12c-6.19,0-10.47,2.21-13.06,4.81-2.22,2.21-4.66,6-4.66,12.29,0,2.6.31,6.19,2.9,9,2.06,2.29,5.19,3.44,7.33,4.12L16,52c3.28,1,5.27,1.53,6.57,2.68a4,4,0,0,1,1.45,3.05,4.59,4.59,0,0,1-1.3,3.21c-.84.91-2.45,1.76-5.12,1.76-4.58,0-8.86-2.53-11.68-5.2L.3,68.17a35.73,35.73,0,0,0,7.71,4A27.32,27.32,0,0,0,18,73.9c5.43,0,10.69-.84,15.05-5.19,3.66-3.67,4.81-8.17,4.81-12.83C37.87,52.37,37.18,49.54,34.58,46.79Z"/><path class="cls-1" d="M74.67,61.53V21.82H61.46V72.75h29.1V61.53Z"/><path class="cls-1" d="M155.69,28.24c-5.19-5-12.52-7.56-20.08-7.56a29,29,0,0,0-20.09,7.56,26.66,26.66,0,0,0,0,38.1,30.46,30.46,0,0,0,40.17,0,26.63,26.63,0,0,0,0-38.1ZM145.84,57.1a14,14,0,0,1-10.23,4,14.43,14.43,0,0,1-10.31-4,12.92,12.92,0,0,1-4-9.46,14,14,0,0,1,4-10,14.65,14.65,0,0,1,10.31-4,15.24,15.24,0,0,1,10.23,4A13.74,13.74,0,0,1,150,47.33,14,14,0,0,1,145.84,57.1Z"/><path class="cls-1" d="M182.57,21.82V33.05h10.84v39.7h13.21V33.05h10.85V21.82Z"/><path class="cls-1" d="M292.45,21.82H279.24L268.32,49,258,21.82H245l-8.62,50.93h13.13l4.35-29.32,11.76,29.32h5.27l12.29-29.32,3.74,29.32h13.22Z"/><path class="cls-1" d="M352.93,21.82H338.49L319,72.75h14l3.44-8.55L340,54.12l5.58-16.49,5.72,16.49,3.51,10.08L358,72.75h14.12Z"/><path class="cls-1" d="M430.81,21.82V53L406.45,21.82H393.24V72.75h13.21V41.6l24.36,31.15H444V21.82Z"/><rect class="cls-1" width="444.32" height="2.83"/><rect class="cls-1" y="91.75" width="444.32" height="2.83"/></g></g></svg>