<svg id="exDhGRdPg091" xmlns="http://www.w3.org/2000/svg" xmlns:xlink="http://www.w3.org/1999/xlink" viewBox="0 0 400.47 352.46" shape-rendering="geometricPrecision" text-rendering="geometricPrecision"><style><![CDATA[#exDhGRdPg096_tr {animation: exDhGRdPg096_tr__tr 1000ms linear infinite normal forwards}@keyframes exDhGRdPg096_tr__tr { 0% {transform: translate(324.719269px,135.021477px) rotate(18180deg)} 100% {transform: translate(324.719269px,135.021477px) rotate(18000deg)}}]]></style><polygon id="exDhGRdPg092" points="266.98,106.33 226.47,98.47 266.97,82.2 274.91,91.43 266.98,106.33" transform="matrix(1 0 0 1 0.065338 61.219865)" fill="rgb(229,5,57)" stroke="none" stroke-width="1"/><path id="exDhGRdPg093" d="M359.48,283L359.48,283L359.54,283L359.48,283Z" transform="matrix(1 0 0 1 -279.184662 -42.860137)" fill="rgb(229,5,57)" stroke="none" stroke-width="1"/><path id="exDhGRdPg094" d="M599.74,189.58C594.9,178.99,591.35,169.94,590.08,167.77C586.38,161.51,580.87,161.85,576.14,162.67C563.53,164.84,558.61,167.06,536.38,172.97C533.11,173.87,526.94,175.68,523.54,174.5C514.54,171.42,511.81,168.95,507.49,169.44C500.8,170.21,487.05,176.67,472.12,187.58C467.45,190.94,467.99,194.96,467.12,197.58C467.037818,197.848399,467.079886,198.139482,467.234695,198.373631C467.389505,198.607781,467.640856,198.760494,467.92,198.79C470.09,199.01,493.78,201.07,494.86,201.22C494.53078,201.049457,494.322942,200.710759,494.32,200.34C494.313252,200.000569,494.504566,199.688219,494.81,199.54C501.57,195.9,526.13,182.89,540.96,177.04C561.25,168.99,566.15,168.13,572.31,167.55C573.952799,167.458493,575.599914,167.478539,577.24,167.61C578.416692,167.682648,579.441754,168.437751,579.86,169.54C582.66,177.76,590.86,196.33,595.2,202.48C594.745513,203.303547,593.931074,203.86625,593,204C591.86,204,589.54,201.87,588.1,200.6C587.772012,200.340609,587.317259,200.312686,586.96,200.53C562.63,215.53,545.09,222.07,542.56,222.97C542.355245,223.055556,542.124755,223.055556,541.92,222.97L529.49,218.34C530.166531,217.523782,530.716049,216.610168,531.12,215.63C531.34431,215.143675,531.46357,214.615523,531.47,214.08C531.38,212.08,529.47,211.65,528.61,211.54C525.3,211.13,436.49,198.03,414.22,195.84C404.77,194.84,395.78,199.73,391.89,204.84L391.89,204.97L404.5,218.11C404.772289,218.406596,405.205807,218.491679,405.57,218.32L415.49,213.75C415.49,213.75,416.85,217.95,415.58,218.66C407.34,223.18,399.36,227.22,391.64,231.27C388.54,232.91,388.64,236.01,387.64,240.37C387.22,242.19,387,243.86,387,243.86C387,243.86,404.3,235.19,414.9,230.13C415.269617,229.977872,415.69432,230.060453,415.98,230.34C417.49,231.97,417.98,232.34,418.98,233.34C419.189076,233.550243,419.2867,233.846807,419.243391,234.140132C419.200081,234.433456,419.020915,234.689152,418.76,234.83C416.26,236.16,413.68,237.52,411.7,238.7C410.13,239.63,411.7,242.76,411.7,242.76L440.49,229.12C440.49,229.12,442.28,230.89,439.11,232.86C434.2,235.94,388.79,259.09,384.89,259.19C374.59,259.45,355.16,240.07,348.14,237.12C342.22,234.63,335.84,238.69,327.19,243.77C324.84,245.17,326.27,248.55,326.27,248.55L338.81,242.2C338.81,242.2,340.36,243.99,338.62,245.08C332.55,248.93,323.77,252.78,322.42,253.75C320.42,255.17,321.2,261.82,321.2,261.82L333.06,256.32C333.380042,256.159554,333.761439,256.182438,334.06,256.38L359.48,280.58C361.093328,280.188246,362.669326,279.656222,364.19,278.99L342.98,256.44C342.796364,256.215137,342.719515,255.921568,342.769421,255.63557C342.819326,255.349572,342.99106,255.09938,343.24,254.95C345.41,253.85,348,253.04,351.67,255.85C354.75,258.19,365.53,266.91,375.96,265.98C379.44,265.68,379.49,266.75,379.49,266.75C379.49,266.75,375.06,268.88,369.81,271.75C367.21,273.19,369.32,276.98,369.32,276.98C396.19,265.98,429.32,252.24,433.92,250.24C434.252381,250.099789,434.634516,250.149467,434.92,250.37L442.69,256.54C443.79,258.26,499.06,237.01,516.1,228.4C517.1,227.93,525.72,228.33,529.91,228.29C531.83,228.29,531.76,229.13,531.76,229.13C531.76,229.13,393.47,284.26,359.54,283L359.48,283L352.25,286.1C356.49,288.9,355.48,293.74,362.7,290C363.13,291,363.63,292,364.16,293.16C365.56,296.16,365.56,296.22,374.74,293.1C400.74,284.32,517.42,249.43,543.56,238.61C558.32,232.52,578.73,224.11,591.45,216.23C604,208.51,606.56,204.51,599.74,189.58ZM488.07,190.12C486.5,191.24,476.16,189.31,476.16,189.31C476.16,189.31,487.6,179.14,498.49,177.84C501.73,177.45,508.28,179.99,508.28,179.99C508.28,179.99,493.67,186.09,488.07,190.12ZM522.77,180L508,187.58C508,187.58,504.58,185.51,508.43,183.77C509.43,183.32,511.68,182.03,513.51,181.08C513.972269,180.835963,514.250431,180.345389,514.222506,179.823405C514.194581,179.301421,513.865667,178.843325,513.38,178.65L502.43,174.26C504.533171,172.58716,507.308515,172.018716,509.9,172.73C511.49,173.22,518.14,176.02,522.51,177.85C522.983776,177.957499,523.338892,178.351124,523.397217,178.83343C523.455542,179.315735,523.204494,179.782664,522.77,180ZM526.45,215.73C525.01,217.86,521.65,221.82,516.71,221.02C514.3,220.61,416.22,200.71,415.98,200.69C415.29,200.5,415.38,199.03,416.63,199.18L525.8,214.26C526.118371,214.326204,526.38467,214.543077,526.513965,214.841449C526.643259,215.139821,526.619401,215.482428,526.45,215.76Z" transform="matrix(1 0 0 1 -279.184662 -42.860137)" fill="rgb(229,5,57)" stroke="none" stroke-width="1"/><path id="exDhGRdPg095" d="M597.33,171C597.228156,171.01457,597.127776,171.037992,597.03,171.07C596.932812,171.108661,596.844392,171.166474,596.77,171.24L597.77,170.98Z" transform="matrix(1 0 0 1 -279.184662 -42.860137)" fill="rgb(229,5,57)" stroke="none" stroke-width="1"/><g id="exDhGRdPg096_tr" transform="translate(324.719269,135.021477) rotate(18180)"><g id="exDhGRdPg096" transform="translate(-324.719269,-135.021476)"><path id="exDhGRdPg097" d="M637.65,244.74C636.83,241.45,630.81,219.65,627.34,211.65L611.49,183.21C609.991193,185.285018,608.318489,187.2287,606.49,189.02C606.184864,189.282788,605.849098,189.507751,605.49,189.69C605.016894,189.884966,604.511608,189.990092,604,190L612.54,218C613.81,222.5,616.78,226.33,619.34,230.22C620.63,232.14,629.71,245.69,633.2,250.89C633.541399,251.401044,634.115411,251.707894,634.73,251.707894C635.344589,251.707894,635.918601,251.401044,636.26,250.89C637.527569,249.10857,638.028232,246.893408,637.65,244.74ZM634.55,248.63L634.36,248.93L634.15,248.63C634.02,248.44,621.2,229.57,616.57,222.26C615.17,220.06,616.81,218.95,616.81,218.95L617,218.84L617.13,219.01C617.78,219.83,632.9,239.53,634.86,243.15C635.728338,244.903917,635.610601,246.985201,634.55,248.63Z" transform="matrix(1 0 0 1 -279.184662 -42.860137)" fill="rgb(229,5,57)" stroke="none" stroke-width="1"/><path id="exDhGRdPg098" d="M595.59,139.36C593.85,133.47,590.88,129.66,588.3,125.76C587.01,123.76,577.57,109.76,574.25,104.76C573.959373,104.320029,573.467294,104.055332,572.94,104.055332C572.412706,104.055332,571.920627,104.320029,571.63,104.76C570.264991,106.688321,569.744986,109.089735,570.19,111.41C571.03,114.68,576.84,136.41,580.32,144.41L594.78,169.88C595.14129,169.458046,595.587721,169.117259,596.09,168.88C596.432661,168.732744,596.797865,168.644825,597.17,168.62C599.08,168.49,602.07,168.51,604.77,168.56ZM590.92,137.36L590.73,137.47L590.6,137.3C589.96,136.46,574.87,116.78,572.87,113.14C572.028322,111.380838,572.156953,109.311391,573.21,107.67L573.4,107.39L573.61,107.67C573.74,107.88,586.61,126.77,591.19,134.05C592.58,136.29,590.94,137.37,590.92,137.39Z" transform="matrix(1 0 0 1 -279.184662 -42.860137)" fill="rgb(229,5,57)" stroke="none" stroke-width="1"/></g></g><path id="exDhGRdPg099" d="M613.53,171C609.59,170.12,602.13,170.07,597.67,170.35C597.50681,170.340326,597.34319,170.340326,597.18,170.35C597.071978,170.366636,596.965102,170.390015,596.86,170.42C596.754472,170.463178,596.659109,170.527889,596.58,170.61C596.048806,170.980563,595.808487,171.645447,595.98,172.27C598.22,177.93,600.2,182.32,602.8,187.48C603.253674,188.114827,604.100958,188.326648,604.8,187.98C604.946003,187.909016,605.083538,187.821799,605.21,187.72C609.256338,183.8458,612.533875,179.24164,614.87,174.15C615.6,172.58,615.17,171.34,613.53,171ZM600.58,178.66L598.3,173.41C598.185784,173.184508,598.177851,172.919882,598.278354,172.687953C598.378856,172.456025,598.577367,172.280857,598.82,172.21C598.895808,172.169829,598.976471,172.139581,599.06,172.12C599.143529,172.100419,608.5,171.78,611.45,172.36C613.02,172.68,613.08,173.24,613.08,173.24Z" transform="matrix(1 0 0 1 -279.184662 -42.860137)" fill="rgb(229,5,57)" stroke="none" stroke-width="1"/><path id="exDhGRdPg0910" d="M565.47,172.43C565.47,172.43,563.69,179.8,560.88,188.3L555.68,181.73L551.47,183.65L559.13,193.35C556.74,199.89,553.86,206.4,550.79,210.24L558.47,206.75C560.22,205.13,561.63,201.85,562.73,197.91L566.95,203.25L571.19,201.32L564.03,192.32C565.59,184.11,566,175.22,565.47,172.43Z" transform="matrix(1 0 0 1 -279.184662 -42.860137)" fill="rgb(229,5,57)" stroke="none" stroke-width="1"/></svg>